<svg xmlns="http://www.w3.org/2000/svg" viewBox="0 0 100 100" width="100" height="100" role="img" aria-hidden="true"><rect width="100" height="100" fill="#efe6cc"/><ellipse cx="50" cy="46" rx="44" ry="46" fill="#ebe1c7"/><g fill="#241f18"><path d="M12 100V91Q16 79 34 74L38 66C30 60 27 42 34 29C41 16 62 13 71.8 24C74.8 28 73.8 34 73.8 38L74.6 41L73.2 44L83 52.5L76.8 55.9L78 58.5L75.4 60.5L77.6 62.9L76.1 66Q76.1 72 69.1 73L62 74L60 83Q82 86 90 100Z"/></g><path d="M72.8 35C66 26 52 22 42 33" fill="none" stroke="#f6f1e3" stroke-width="1.4" stroke-linecap="round"/><path d="M45 44C43 47 44 53 48 54" fill="none" stroke="#f6f1e3" stroke-width="1.5" stroke-linecap="round"/><path d="M42 78L59 80L62 89L46 87Z" fill="none" stroke="#f6f1e3" stroke-width="1.5"/><circle cx="69" cy="91" r="1.3" fill="#f6f1e3"/><circle cx="72" cy="97" r="1.3" fill="#f6f1e3"/><rect x="1" y="1" width="98" height="98" fill="none" stroke="#a3957a" stroke-width="1.4"/></svg>
