<svg xmlns="http://www.w3.org/2000/svg" viewBox="0 0 100 100" width="100" height="100" role="img" aria-hidden="true"><rect width="100" height="100" fill="#efe6cc"/><ellipse cx="50" cy="46" rx="44" ry="46" fill="#ebe1c7"/><g fill="#241f18"><path d="M33 31C40 14 66 12 71.2 24L72.2 30C60 20 44 22 36 40Z"/><path d="M12 100V91Q16 79 34 74L38 66C30 60 27 42 34 29C41 16 62 13 71.2 24C74.2 28 73.2 34 73.2 38L74 41L72.6 44L83.2 51.5L76.2 54.9L77.4 57.5L74.8 59.5L77 61.9L74.7 66Q74.7 72 67.7 73L62 74L60 83Q82 86 90 100Z"/></g><path d="M72.2 35C66 26 52 22 42 33" fill="none" stroke="#f6f1e3" stroke-width="1.4" stroke-linecap="round"/><path d="M45 44C43 47 44 53 48 54" fill="none" stroke="#f6f1e3" stroke-width="1.5" stroke-linecap="round"/><path d="M44 79L58 84L64 93L50 91Z" fill="#f6f1e3"/><path d="M58 84L72 100M44 79L60 100" fill="none" stroke="#efe6cc" stroke-width="1.6"/><rect x="1" y="1" width="98" height="98" fill="none" stroke="#a3957a" stroke-width="1.4"/></svg>
