<svg xmlns="http://www.w3.org/2000/svg" viewBox="0 0 24 24" width="24" height="24" fill="none" stroke="currentColor" stroke-width="1.8" stroke-linecap="square" stroke-linejoin="miter" aria-hidden="true"><path d="M9.1 21L9.1 18L9.3 15L9.3 12L9 9"/><path d="M4.9 21L5.8 17.9L7.3 15.1L8.1 12L8.9 9"/><path d="M13 21L12.1 18L10.8 15.1L9.8 12.1L9 9"/><path d="M5.7 7.8L6.3 6.7L7.3 6.1L8.3 5.3L9.6 5.9L10.7 6L11.8 6.6L12.2 7.8"/><path d="M19.1 4L19.2 6.5L19.1 9L18.7 11.5L18.9 14"/><path d="M16 11L17.4 12.8L18.9 14.6L20.3 12.6L22.1 11.1"/></svg>
